<svg t="1704187447567" class="icon" viewBox="0 0 1024 1024" version="1.1" xmlns="http://www.w3.org/2000/svg" p-id="1973" width="200" height="200"><path d="M502.526298 1003.895216z m124.158913-672.890112a251.645798 251.645798 0 0 0-105.343078-22.015808h-22.143806a255.101768 255.101768 0 0 0-253.309784 255.99776l0.767993 165.118556a254.333775 254.333775 0 0 0 255.997761 253.437782h22.143806a255.229767 255.229767 0 0 0 253.309783-255.99776l-0.767993-165.374553A254.589772 254.589772 0 0 0 626.685211 331.005104zM380.543365 998.391264A295.549414 295.549414 0 0 1 206.336889 730.617607L205.568896 565.371053A295.549414 295.549414 0 0 1 498.942329 268.797648h22.015807a294.397424 294.397424 0 0 1 296.317408 293.117435l0.767993 165.118555A295.677413 295.677413 0 0 1 524.670104 1023.99104H502.526298a292.477441 292.477441 0 0 1-121.982933-25.599776z" fill="#1296db" p-id="1974"></path><path d="M306.944009 351.356926A346.364969 346.364969 0 0 1 282.368224 175.486464a336.253058 336.253058 0 0 1 89.599216 63.103448 499.195632 499.195632 0 0 1 41.343638 51.839547 313.341258 313.341258 0 0 1 43.903616-10.495908 422.396304 422.396304 0 0 0-45.439602-58.36749v-10.751906c16.255858-75.903336 79.743302-140.798768 106.367069-164.606559 27.519759 22.015807 92.799188 81.023291 114.430999 154.366649v4.991956a394.748546 394.748546 0 0 0-65.279429 73.471357 299.901376 299.901376 0 0 1 44.031615 9.727915 401.020491 401.020491 0 0 1 45.823599-49.791564l16.383856-14.719871a340.221023 340.221023 0 0 1 43.391621-28.799748 339.709028 339.709028 0 0 1-5.887949 146.30272 286.973489 286.973489 0 0 1 21.887809 19.711827c3.839966 3.711968 7.423935 7.551934 11.007903 11.519899a381.436662 381.436662 0 0 0 6.783941-212.222143 20.351822 20.351822 0 0 0-10.879905-12.799888 19.199832 19.199832 0 0 0-17.15185 0c-4.863957 2.30398-9.471917 4.479961-14.079877 6.91194a378.876685 378.876685 0 0 0-10.623907-125.566901 19.967825 19.967825 0 0 0-10.879904-12.799888 19.199832 19.199832 0 0 0-17.15185 0 390.140586 390.140586 0 0 0-76.031335 46.591592A449.276069 449.276069 0 0 0 528.51007 3.711968a20.223823 20.223823 0 0 0-24.191788 0.639994A461.947958 461.947958 0 0 0 435.96688 75.135343a377.212699 377.212699 0 0 0-93.439182-69.119396c-2.431979-1.279989-4.863957-2.559978-7.423935-3.711967a20.095824 20.095824 0 0 0-28.415752 12.799888 381.308664 381.308664 0 0 0-14.719871 120.574945l-11.007904-4.863958L273.408302 127.99888a20.60782 20.60782 0 0 0-16.639854 0.895992 19.839826 19.839826 0 0 0-10.111912 13.823879 385.020631 385.020631 0 0 0 30.719732 239.869901 315.133243 315.133243 0 0 1 29.567741-31.231726z m360.316847-172.926487z m-47.615583-85.75925A358.396864 358.396864 0 0 1 663.932885 63.99944a337.533047 337.533047 0 0 1 1.407988 109.823039 315.261241 315.261241 0 0 0-46.079597-80.767293z m-280.317547-42.23963a337.405048 337.405048 0 0 1 72.703363 58.111491 302.717351 302.717351 0 0 0-36.47968 79.231307A371.196752 371.196752 0 0 0 333.567776 158.078617a335.613063 335.613063 0 0 1 5.75995-107.647058z" fill="#1296db" p-id="1975"></path><path d="M273.024306 407.881231l27.148562-27.148562L770.555952 851.102953l-27.135762 27.148562zM217.088795 652.730289l27.161363-27.161363 348.822547 348.822548-27.148562 27.161362zM475.531334 309.462892l27.148562-27.148562 307.197312 307.184512-27.161362 27.148562z" fill="#1296db" p-id="1976"></path><path d="M264.896377 866.040422L735.266661 395.644538l27.148563 27.161362L292.044939 893.176185zM442.443623 989.303344l348.822548-348.822548 27.148563 27.161362-348.809748 348.822548zM212.532035 617.658595l339.222632-339.222631 27.161362 27.148562L239.680598 644.819958z" fill="#1296db" p-id="1977"></path></svg>